<svg id="download" xmlns="http://www.w3.org/2000/svg" width="24.404" height="22.739" viewBox="0 0 24.404 22.739">
  <path id="Path_54" data-name="Path 54" d="M19.708,6.27a7.607,7.607,0,0,0-14.975,0,5.461,5.461,0,0,0,.616,10.872H9.165a.779.779,0,0,0,0-1.558H5.348a3.9,3.9,0,0,1,.045-7.792.769.769,0,0,0,.759-.693,6.1,6.1,0,0,1,12.136,0,.814.814,0,0,0,.8.693,3.9,3.9,0,0,1,0,7.792H15.274a.779.779,0,0,0,0,1.558h3.818A5.462,5.462,0,0,0,19.708,6.27Zm0,0" transform="translate(0.001 0)" fill="#13443a"/>
  <path id="Path_55" data-name="Path 55" d="M178.377,215.909l-1.775,1.775v-8.811a.7.7,0,1,0-1.4,0v8.811l-1.775-1.775a.7.7,0,0,0-1.007.973l.017.017,2.969,2.97a.7.7,0,0,0,.226.151.692.692,0,0,0,.539,0,.7.7,0,0,0,.226-.151l2.969-2.97a.7.7,0,1,0-.973-1.007Zm0,0" transform="translate(-163.681 -197.336)" fill="#13443a"/>
</svg>
