<svg xmlns="http://www.w3.org/2000/svg" width="70.476" height="70.476" viewBox="0 0 70.476 70.476">
  <g id="gear" transform="translate(-1 -1)">
    <path id="Path_1" data-name="Path 1" d="M38.675,38.12l2.231-3.758-6.073-6.073L31.075,30.52a18.047,18.047,0,0,0-3.1-1.282L26.891,25H18.3l-1.08,4.239a18.047,18.047,0,0,0-3.1,1.282L10.362,28.29,4.289,34.363,6.52,38.121a18.047,18.047,0,0,0-1.282,3.1L1,42.3v8.588l4.239,1.08a18.047,18.047,0,0,0,1.282,3.1L4.29,58.833l6.073,6.073,3.758-2.231a18.048,18.048,0,0,0,3.1,1.282l1.08,4.238h8.588l1.08-4.239a18.047,18.047,0,0,0,3.1-1.282l3.758,2.231,6.073-6.073-2.231-3.758a18.047,18.047,0,0,0,1.282-3.1l4.238-1.08V42.3l-4.239-1.08A18.042,18.042,0,0,0,38.675,38.12Zm3.246,11-3.8.97-.173.641a15.748,15.748,0,0,1-1.568,3.793l-.332.576,2,3.371L34.475,62.05l-3.371-2-.576.332a15.794,15.794,0,0,1-3.793,1.568l-.641.173-.968,3.8H20.072l-.97-3.8-.641-.173a15.748,15.748,0,0,1-3.793-1.568l-.576-.332-3.371,2L7.146,58.475l2-3.371-.332-.576a15.794,15.794,0,0,1-1.568-3.793l-.173-.641-3.8-.968V44.072l3.8-.97.173-.641a15.748,15.748,0,0,1,1.568-3.793l.332-.576-2-3.371,3.574-3.574,3.371,2,.576-.332a15.794,15.794,0,0,1,3.793-1.568l.641-.173.968-3.8h5.053l.97,3.8.641.173a15.748,15.748,0,0,1,3.793,1.568l.576.332,3.371-2,3.574,3.574-2,3.371.332.576a15.794,15.794,0,0,1,1.568,3.793l.173.641,3.8.968Z" transform="translate(0 3.281)" fill="#13443a"/>
    <path id="Path_2" data-name="Path 2" d="M21.641,32A13.641,13.641,0,1,0,35.281,45.64,13.656,13.656,0,0,0,21.641,32Zm0,25.008A11.367,11.367,0,1,1,33.008,45.64,11.38,11.38,0,0,1,21.641,57.008Z" transform="translate(0.957 4.238)" fill="#14ae8e"/>
    <path id="Path_3" data-name="Path 3" d="M20.82,38a6.82,6.82,0,1,0,6.82,6.82A6.827,6.827,0,0,0,20.82,38Zm0,11.367a4.547,4.547,0,1,1,4.547-4.547A4.551,4.551,0,0,1,20.82,49.367Z" transform="translate(1.777 5.058)" fill="#13443a"/>
    <path id="Path_4" data-name="Path 4" d="M63.691,9H36.41A3.414,3.414,0,0,0,33,12.41V28.324a3.414,3.414,0,0,0,3.41,3.41h2.273v5.249l10.5-5.249H63.691a3.414,3.414,0,0,0,3.41-3.41V12.41A3.414,3.414,0,0,0,63.691,9Zm1.137,19.324a1.137,1.137,0,0,1-1.137,1.137H48.646l-7.689,3.844V29.461H36.41a1.137,1.137,0,0,1-1.137-1.137V12.41a1.137,1.137,0,0,1,1.137-1.137H63.691a1.137,1.137,0,0,1,1.137,1.137Z" transform="translate(4.375 1.094)" fill="#13443a"/>
    <path id="Path_5" data-name="Path 5" d="M4.41,21.461H15.462L22.6,25.743V21.461h9.094a3.414,3.414,0,0,0,3.41-3.41V4.41A3.414,3.414,0,0,0,31.691,1H4.41A3.414,3.414,0,0,0,1,4.41V18.051A3.414,3.414,0,0,0,4.41,21.461ZM3.273,4.41A1.137,1.137,0,0,1,4.41,3.273H31.691A1.137,1.137,0,0,1,32.828,4.41V18.051a1.137,1.137,0,0,1-1.137,1.137H20.324v2.538l-4.232-2.538H4.41a1.137,1.137,0,0,1-1.137-1.137Z" transform="translate(0 0)" fill="#13443a"/>
    <path id="Path_6" data-name="Path 6" d="M59.461,24.367H57.187V15.273H54.914v9.094H52.641V13H50.367V24.367H48.094v-6.82H45.82v6.82H43.547V19.82H41.273v4.547H39v2.273H61.734V13H59.461Z" transform="translate(5.195 1.641)" fill="#14ae8e"/>
    <path id="Path_7" data-name="Path 7" d="M8.41,13.82A3.41,3.41,0,1,0,5,10.41,3.414,3.414,0,0,0,8.41,13.82Zm0-4.547A1.137,1.137,0,1,1,7.273,10.41,1.137,1.137,0,0,1,8.41,9.273Z" transform="translate(0.547 0.82)" fill="#14ae8e"/>
    <path id="Path_8" data-name="Path 8" d="M16.41,13.82A3.41,3.41,0,1,0,13,10.41,3.414,3.414,0,0,0,16.41,13.82Zm0-4.547a1.137,1.137,0,1,1-1.137,1.137A1.137,1.137,0,0,1,16.41,9.273Z" transform="translate(1.641 0.82)" fill="#14ae8e"/>
    <path id="Path_9" data-name="Path 9" d="M24.41,13.82A3.41,3.41,0,1,0,21,10.41,3.414,3.414,0,0,0,24.41,13.82Zm0-4.547a1.137,1.137,0,1,1-1.137,1.137A1.137,1.137,0,0,1,24.41,9.273Z" transform="translate(2.734 0.82)" fill="#14ae8e"/>
  </g>
</svg>
