<svg xmlns="http://www.w3.org/2000/svg" xmlns:xlink="http://www.w3.org/1999/xlink" width="1375" height="105" viewBox="0 0 1375 105">
  <defs>
    <clipPath id="clip-path">
      <rect id="Rectangle_12" data-name="Rectangle 12" width="1375" height="105" transform="translate(920 625.582)" fill="#fff" stroke="#707070" stroke-width="1"/>
    </clipPath>
  </defs>
  <g id="Mask_Group_1" data-name="Mask Group 1" transform="translate(-920 -625.582)" clip-path="url(#clip-path)">
    <path id="wave_1_" data-name="wave (1)" d="M3636.433,102.473l-40.4-13.119C3555.624,76.093,3474.814,50.065,3394,34.941S3232.385,16.3,3151.575,18.058s-161.619,9.5-242.429,18.747c-80.81,9.391-161.619,20.646-242.428,15.019S2505.1,23.686,2424.289,29.313,2262.67,68.707,2181.86,74.335s-161.619-16.883-242.429-31.9C1858.621,27.555,1777.812,19.817,1697,14.295c-80.809-5.733-161.619-9.25-242.429,3.763s-161.619,43.263-242.429,48.785c-80.81,5.733-161.62-13.26-242.429-18.782-80.809-5.733-161.619,2-242.429-1.864S565.668,27.555,484.858,21.822c-80.81-5.522-161.619-2-242.429,7.492S80.81,53.583,40.405,61.215L0,68.707v45.021H3636.433Z" transform="translate(-448.763 616.854)" fill="rgba(19,68,58,0.22)"/>
    <path id="wave_1_2" data-name="wave (1)" d="M0,102.473,27.736,89.353c27.736-13.26,83.209-39.288,138.682-54.412S277.364,16.3,332.837,18.058s110.946,9.5,166.418,18.747C554.728,46.2,610.2,57.452,665.674,51.824S776.619,23.686,832.092,29.313,943.037,68.707,998.51,74.335s110.946-16.883,166.418-31.9c55.473-14.878,110.946-22.616,166.418-28.138,55.473-5.733,110.945-9.25,166.418,3.763s110.946,43.263,166.418,48.785c55.473,5.733,110.946-13.26,166.418-18.782,55.473-5.733,110.946,2,166.418-1.864s110.945-18.642,166.418-24.375c55.473-5.522,110.945-2,166.418,7.492s110.946,24.269,138.682,31.9l27.737,7.492v45.021H0Z" transform="translate(278.16 616.854)" fill="rgba(20,174,142,0.3)"/>
  </g>
</svg>
