<svg xmlns="http://www.w3.org/2000/svg" xmlns:xlink="http://www.w3.org/1999/xlink" width="24.197" height="24.197" viewBox="0 0 24.197 24.197">
  <defs>
    <clipPath id="clip-path">
      <circle id="Ellipse_10" data-name="Ellipse 10" cx="12.098" cy="12.098" r="12.098"/>
    </clipPath>
  </defs>
  <g id="man" transform="translate(0 -0.001)">
    <g id="Group_48" data-name="Group 48" transform="translate(0 0.001)">
      <circle id="Ellipse_9" data-name="Ellipse 9" cx="12.098" cy="12.098" r="12.098" transform="translate(0)" fill="#e6e7e2"/>
      <g id="Group_44" data-name="Group 44" transform="translate(0)" clip-path="url(#clip-path)">
        <path id="Path_45" data-name="Path 45" d="M50.749,123.822h0a6.8,6.8,0,0,0-.827-.535.079.079,0,0,0-.025-.012,4.437,4.437,0,0,1-2.3-3.889l-2.073-.01a4.437,4.437,0,0,1-2.316,3.9.008.008,0,0,0,0,0,7.227,7.227,0,0,0-.837.535,7,7,0,0,0-2.829,5.628H53.566A7,7,0,0,0,50.749,123.822Z" transform="translate(-34.454 -104.024)" fill="#ecc19c"/>
      </g>
      <g id="Group_45" data-name="Group 45" transform="translate(0)" clip-path="url(#clip-path)">
        <path id="Path_46" data-name="Path 46" d="M53.565,152.941H39.538a7,7,0,0,1,2.829-5.628,7.237,7.237,0,0,1,.837-.535.008.008,0,0,1,.005,0,4.356,4.356,0,0,0,.64-.429,3.783,3.783,0,0,0,5.413,0,4.1,4.1,0,0,0,.633.427.077.077,0,0,1,.025.012,6.8,6.8,0,0,1,.827.535h0A7,7,0,0,1,53.565,152.941Z" transform="translate(-34.453 -127.525)" fill="#168ef7"/>
      </g>
      <g id="Group_46" data-name="Group 46" transform="translate(0)" clip-path="url(#clip-path)">
        <path id="Path_47" data-name="Path 47" d="M52.217,38.091V43.6c0,3.726,3.271,6.747,5.383,6.747s5.383-3.021,5.383-6.747V38.091Z" transform="translate(-45.502 -33.192)" fill="#ecc19c"/>
      </g>
      <g id="Group_47" data-name="Group 47" transform="translate(0)" clip-path="url(#clip-path)">
        <path id="Path_48" data-name="Path 48" d="M52.193,13.889a6.322,6.322,0,0,0-4.946-2.408,6.5,6.5,0,0,0-6.406,6.6,6.663,6.663,0,0,0,2.093,4.878,7.431,7.431,0,0,1-.517-2.75A7.121,7.121,0,0,1,43.7,16.06a7.347,7.347,0,0,0,3.731.306,7.341,7.341,0,0,0,3.487-1.287,6.833,6.833,0,0,1,2.161,5.128,7.331,7.331,0,0,1-.618,2.983c1.264-.523,2.194-2.389,2.194-4.609C54.653,16.206,53.587,14.247,52.193,13.889Z" transform="translate(-35.589 -10.005)" fill="#494846"/>
      </g>
    </g>
  </g>
</svg>
