<svg xmlns="http://www.w3.org/2000/svg" xmlns:xlink="http://www.w3.org/1999/xlink" width="503.379" height="310.297" viewBox="0 0 503.379 310.297">
  <defs>
    <clipPath id="clip-path">
      <path id="path26" d="M90.853-541.893H574.827v290.4H90.853Z"/>
    </clipPath>
    <clipPath id="clip-path-2">
      <path id="path42" d="M87.6-561.789H590.976v306.166H87.6Z" fill="#14ae8e"/>
    </clipPath>
  </defs>
  <g id="g10" transform="translate(-87.597 561.789)">
    <g id="Group_58" data-name="Group 58">
      <g id="g22">
        <g id="g36">
          <g id="g34" opacity="0.22" clip-path="url(#clip-path)">
            <g id="g32" transform="translate(358.361 -516.192)">
              <path id="path30" d="M0,0C-52.185,16.661-217.479-65.5-204.544,46.725c2.021,16.687,12.769,40.256,3.692,55.835-6.576,11.667-18.632,18.5-30.277,23.039-30.419,12.367-41.744,35.576-34.041,68.7,20.605,89.26,132.774,68.092,191.66,41.625,41.877-19.7,91.266-23.079,134.63-6.417,33.972,13.567,55.149,42.027,95.021,33.689,35.361-7.1,40.7-40.48,30.372-71.557-5.867-19.227-10.079-27.351,1.557-45.909,9.8-18.432,27.063-32.4,28.391-53.992C216.75,68.351,206,44.783,185.2,35.924c-17.016-7.247-32.441-4.321-49.275-8.777C98.486,16.624,74.424-41.553,27.973-21.545,16.392-16.079,9.875-3.48-2.745.189" fill="#14ae8e"/>
            </g>
          </g>
        </g>
      </g>
      <g id="g38">
        <g id="g120">
          <g id="g118" opacity="0.3" clip-path="url(#clip-path-2)">
            <g id="g48" transform="translate(339.439 -524.206)">
              <path id="path46" d="M0,0C4.729,0,4.729-7.333,0-7.333S-4.729,0,0,0" fill="#14ae8e"/>
            </g>
            <g id="g52" transform="translate(122.19 -411.457)">
              <path id="path50" d="M0,0C9.459,0,9.459-14.667,0-14.667S-9.459,0,0,0" fill="#14ae8e"/>
            </g>
            <g id="g56" transform="translate(563.105 -352.974)">
              <path id="path54" d="M0,0C9.459,0,9.459-14.667,0-14.667S-9.459,0,0,0" fill="#14ae8e"/>
            </g>
            <g id="g60" transform="translate(314.689 -527.873)">
              <path id="path58" d="M0,0C9.459,0,9.459-14.667,0-14.667S-9.459,0,0,0" fill="#14ae8e"/>
            </g>
            <g id="g64" transform="translate(577.772 -376.257)">
              <path id="path62" d="M0,0C12.3,0,12.3-19.067,0-19.067S-12.3,0,0,0" fill="#14ae8e"/>
            </g>
            <g id="g68" transform="translate(97.441 -387.257)">
              <path id="path66" d="M0,0C12.3,0,12.3-19.067,0-19.067S-12.3,0,0,0" fill="#14ae8e"/>
            </g>
            <g id="g72" transform="translate(504.439 -501.84)">
              <path id="path70" d="M0,0C12.3,0,12.3-19.067,0-19.067S-12.3,0,0,0" fill="#14ae8e"/>
            </g>
            <g id="g76" transform="translate(335.773 -539.79)">
              <path id="path74" d="M0,0C14.188,0,14.188-22,0-22S-14.187,0,0,0" fill="#14ae8e"/>
            </g>
            <g id="g80" transform="translate(585.656 -359.024)">
              <path id="path78" d="M0,0C7.093,0,7.093-11,0-11S-7.093,0,0,0" fill="#14ae8e"/>
            </g>
            <g id="g84" transform="translate(94.873 -417.873)">
              <path id="path82" d="M0,0C7.093,0,7.093-11,0-11S-7.093,0,0,0" fill="#14ae8e"/>
            </g>
            <g id="g88" transform="translate(527.355 -491.206)">
              <path id="path86" d="M0,0C7.093,0,7.093-11,0-11S-7.093,0,0,0" fill="#14ae8e"/>
            </g>
            <g id="g92" transform="translate(525.522 -511.373)">
              <path id="path90" d="M0,0C4.729,0,4.729-7.333,0-7.333S-4.729,0,0,0" fill="#14ae8e"/>
            </g>
            <g id="g96" transform="translate(154.091 -524.024)">
              <path id="path94" d="M0,0C9.459,0,9.459-14.667,0-14.667S-9.459,0,0,0" fill="#14ae8e"/>
            </g>
            <g id="g100" transform="translate(571.355 -271.206)">
              <path id="path98" d="M0,0C9.459,0,9.459-14.667,0-14.667S-9.459,0,0,0" fill="#14ae8e"/>
            </g>
            <g id="g104" transform="translate(94.691 -264.79)">
              <path id="path102" d="M0,0C9.459,0,9.459-14.667,0-14.667S-9.459,0,0,0" fill="#14ae8e"/>
            </g>
            <g id="g108" transform="translate(176.091 -535.024)">
              <path id="path106" d="M0,0C4.729,0,4.729-7.333,0-7.333S-4.729,0,0,0" fill="#14ae8e"/>
            </g>
            <g id="g112" transform="translate(572.272 -300.54)">
              <path id="path110" d="M0,0C4.729,0,4.729-7.333,0-7.333S-4.729,0,0,0" fill="#14ae8e"/>
            </g>
            <g id="g116" transform="translate(116.69 -255.623)">
              <path id="path114" d="M0,0C4.729,0,4.729-7.333,0-7.333S-4.729,0,0,0" fill="#14ae8e"/>
            </g>
          </g>
        </g>
      </g>
      <g id="g122" transform="translate(221.375 -379.093)">
        <path id="path124" d="M0,0C-4.94,1.745-8.2,2.079-10.732-2.917c-1.949-3.848-3.249-7.82-5.7-11.421-5.317-7.807-10.467-8.329-18.981-7.217-8.451,1.1-19.979-1.056-21.261-10.828-.913-6.965-.967-13.369-4.017-19.885-1.5-3.209-6.243-.416-4.748,2.776,3.383,7.231,1.9,15.1,4.38,22.465,2.511,7.472,10.876,9.881,17.907,10.721,5.313.633,9.965-.648,15.175-.643,5.595.007,9.415,9.6,11.188,13.816C-13.1,5.651-7.861,8.6,1.463,5.3,4.783,4.131,3.353-1.184,0,0" fill="#1c1c1b"/>
      </g>
      <g id="g126" transform="translate(163.252 -438.785)">
        <path id="path128" d="M0,0A16.437,16.437,0,0,1-6.056,4.711c-2.535,1.277-.305,5.072,2.221,3.8A21.147,21.147,0,0,0,3.8,2.221,2.2,2.2,0,0,0,3.011-.789,2.254,2.254,0,0,0,0,0" fill="#1c1c1b"/>
      </g>
      <g id="g130" transform="translate(155.374 -444.64)">
        <path id="path132" d="M0,0C.012,4.652.691,9.279.733,13.933c.025,2.836,4.425,2.839,4.4,0C5.091,9.279,4.412,4.652,4.4,0,4.392-2.837-.008-2.837,0,0" fill="#1c1c1b"/>
      </g>
      <g id="g134" transform="translate(147.952 -440.151)">
        <path id="path136" d="M0,0C2.944,3.68,5.933,7.352,9.977,9.877c2.415,1.507,4.621-2.3,2.221-3.8C8.507,3.772,5.8.245,3.111-3.111,1.337-5.327-1.753-2.192,0,0" fill="#1c1c1b"/>
      </g>
      <g id="g138" transform="translate(144.286 -433.552)">
        <path id="path140" d="M0,0A14.307,14.307,0,0,0,14.607,3.5c2.705-.827,1.551-5.075-1.169-4.244A9.847,9.847,0,0,1,3.111-3.111C1.052-5.059-2.065-1.952,0,0" fill="#1c1c1b"/>
      </g>
      <g id="g142" transform="translate(446.323 -365.441)">
        <path id="path144" d="M0,0C.2-7.188,2.6-9.585,9.539-10.151c4.508-.368,9.081-.307,13.54-1.136,6.8-1.268,6.677-10.655,9.311-15.5,4.021-7.4,14.824-6.613,21.8-8.8,7.68-2.408,10.628-8.911,11.081-16.484.212-3.544-5.289-3.524-5.5,0C59.092-40.8,50.829-40.408,41.753-38.54c-8,1.645-13.417,6.031-16.2,13.74-.871,2.412-1.083,7.443-3.939,8.209-4.651,1.248-10,.677-14.789,1.2C-2.165-14.42-5.264-8.533-5.5,0-5.6,3.549-.1,3.539,0,0" fill="#1c1c1b"/>
      </g>
      <g id="g146" transform="translate(498.651 -424.256)">
        <path id="path148" d="M0,0A17.392,17.392,0,0,0,9.6,9.6a2.2,2.2,0,0,0,2.705-1.537A2.254,2.254,0,0,0,10.773,5.36,12.415,12.415,0,0,1,4.243-1.169,2.254,2.254,0,0,0,1.536-2.707,2.2,2.2,0,0,0,0,0" fill="#1c1c1b"/>
      </g>
      <g id="g150" transform="translate(505.172 -429.974)">
        <path id="path152" d="M0,0V11c0,2.837,4.4,2.837,4.4,0V0C4.4-2.837,0-2.837,0,0" fill="#1c1c1b"/>
      </g>
      <g id="g154" transform="translate(512.585 -429.092)">
        <path id="path156" d="M0,0A20.317,20.317,0,0,1-6.768,9.3c-2.2,1.795.933,4.888,3.112,3.111a24.428,24.428,0,0,0,7.9-11.237C5.175-1.519.923-2.664,0,0" fill="#1c1c1b"/>
      </g>
      <g id="g158" transform="translate(517.94 -424.484)">
        <path id="path160" d="M0,0A16.909,16.909,0,0,1-8.219,6.323c-2.588,1.061-1.457,5.319,1.169,4.243C-2.665,8.768,1.225,6.3,3.8,2.221,5.317-.187,1.509-2.392,0,0" fill="#1c1c1b"/>
      </g>
      <g id="g162" transform="translate(472.543 -285.753)">
        <path id="path164" d="M0,0C0,3.848-28.805,4.965-31.919,4.965H-247.487c-3.109,0-31.92-1.117-31.92-4.965l26.287-39.4c0-3.848,2.524-6.967,5.633-6.967H-31.919c3.113,0,5.633,3.119,5.633,6.967Z" fill="#b4b4b4"/>
      </g>
      <g id="g166" transform="translate(288.508 -294.53)">
        <path id="path168" d="M0,0H-55.4l9.695-23.467H4.4Z" fill="#3c3c3a"/>
      </g>
      <g id="g170" transform="translate(377.171 -294.53)">
        <path id="path172" d="M0,0H55.4l-9.7-23.467H-4.4Z" fill="#3c3c3a"/>
      </g>
      <g id="g174" transform="translate(438.731 -294.53)">
        <path id="path176" d="M0,0H19.509L3.545-23.467H-11.172Z" fill="#3c3c3a"/>
      </g>
      <g id="g178" transform="translate(226.951 -294.53)">
        <path id="path180" d="M0,0H-19.511L-3.545-23.467H11.169Z" fill="#3c3c3a"/>
      </g>
      <g id="g182" transform="translate(372.297 -294.53)">
        <path id="path184" d="M0,0H-78.917l4.4-23.467H-4.4Z" fill="#3c3c3a"/>
      </g>
      <path id="path186" d="M453.426-310.122H212.255v-3.592h241.17Z" fill="#b4b4b4"/>
      <path id="path188" d="M456.04-301.322h-246.4v-3.592h246.4Z" fill="#b4b4b4"/>
      <g id="g190" transform="translate(474.018 -276.627)">
        <path id="path192" d="M0,0C0,3.111-.644,5.632-3.752,5.632H-278.6c-3.113,0-3.755-2.521-3.755-5.632V-4.829c0-3.111.641-5.632,3.755-5.632H-3.752C-.644-10.461,0-7.94,0-4.829Z" fill="#3c3c3a"/>
      </g>
      <g id="g194" transform="translate(384.356 -278.907)">
        <path id="path196" d="M0,0A2.932,2.932,0,0,1-2.932,2.933H-100.1A2.933,2.933,0,0,1-103.032,0,2.933,2.933,0,0,1-100.1-2.933H-2.932A2.932,2.932,0,0,1,0,0" fill="#707070"/>
      </g>
      <g id="g198" transform="translate(449.073 -330.474)">
        <path id="path200" d="M0,0A5.635,5.635,0,0,1-5.635,5.635h-221.2A5.635,5.635,0,0,1-232.467,0V-144.31a5.634,5.634,0,0,1,5.635-5.633h221.2A5.633,5.633,0,0,1,0-144.31Z" fill="#3c3c3a"/>
      </g>
      <g id="g202" transform="translate(332.84 -472.582)">
        <path id="path204" d="M0,0C3.028,0,3.028-4.695,0-4.695S-3.028,0,0,0" fill="#fff"/>
      </g>
      <g id="g206" transform="translate(432.801 -339.545)">
        <path id="path208" d="M0,0A4.845,4.845,0,0,1-4.843,4.845H-195.078A4.847,4.847,0,0,1-199.924,0V-124.1a4.847,4.847,0,0,1,4.845-4.845H-4.843A4.845,4.845,0,0,1,0-124.1Z" fill="#fff"/>
      </g>
      <g id="g210" transform="translate(303.737 -418.191)">
        <path id="path212" d="M0,0-16.595,16.592" fill="none" stroke="#325975" stroke-linecap="round" stroke-linejoin="round" stroke-miterlimit="10" stroke-width="4.4"/>
      </g>
      <g id="g214" transform="translate(303.737 -401.596)">
        <path id="path216" d="M0,0-16.593-16.593" fill="none" stroke="#325975" stroke-linecap="round" stroke-linejoin="round" stroke-miterlimit="10" stroke-width="4.4"/>
      </g>
      <g id="g218" transform="translate(378.537 -418.191)">
        <path id="path220" d="M0,0-16.595,16.592" fill="none" stroke="#325975" stroke-linecap="round" stroke-linejoin="round" stroke-miterlimit="10" stroke-width="4.4"/>
      </g>
      <g id="g222" transform="translate(378.537 -401.596)">
        <path id="path224" d="M0,0-16.592-16.593" fill="none" stroke="#325975" stroke-linecap="round" stroke-linejoin="round" stroke-miterlimit="10" stroke-width="4.4"/>
      </g>
      <g id="g226" transform="translate(371.089 -381.574)">
        <path id="path228" d="M0,0V16.377a5.868,5.868,0,0,1-5.867,5.868H-9.031A5.868,5.868,0,0,1-14.9,16.377V0" fill="#f29bb4"/>
      </g>
      <g id="g230" transform="translate(366.213 -380.719)">
        <path id="path232" d="M0,0-2.573,19.067-5.145,0Z" fill="#ef82a2"/>
      </g>
      <g id="g234" transform="translate(283.115 -381.592)">
        <path id="path236" d="M0,0H99.449" fill="none" stroke="#325975" stroke-linecap="round" stroke-linejoin="round" stroke-miterlimit="10" stroke-width="3.667"/>
      </g>
      <g id="g238" transform="translate(266.841 -384.018)">
        <path id="path240" d="M0,0C9.459,0,9.459-14.667,0-14.667S-9.459,0,0,0" fill="#f7c3d2"/>
      </g>
      <g id="g242" transform="translate(398.84 -384.018)">
        <path id="path244" d="M0,0C9.459,0,9.459-14.667,0-14.667S-9.459,0,0,0" fill="#f7c3d2"/>
      </g>
      <g id="g246" transform="translate(411.306 -499.64)">
        <path id="path248" d="M0,0V48.4c0,4.729,7.333,4.729,7.333,0V0C7.333-4.729,0-4.729,0,0" fill="#f29101"/>
      </g>
      <g id="g250" transform="translate(414.973 -432.54)">
        <path id="path252" d="M0,0C7.093,0,7.093-11,0-11S-7.093,0,0,0" fill="#f29101"/>
      </g>
    </g>
  </g>
</svg>
