<svg xmlns="http://www.w3.org/2000/svg" width="24.843" height="23.09" viewBox="0 0 24.843 23.09">
  <g id="print" transform="translate(0 -18.065)">
    <g id="Group_51" data-name="Group 51" transform="translate(0 18.065)">
      <g id="Group_50" data-name="Group 50">
        <path id="Path_50" data-name="Path 50" d="M22.911,23.686H20.276V18.893a.828.828,0,0,0-.828-.828H5.4a.828.828,0,0,0-.828.828v4.793H1.932A1.934,1.934,0,0,0,0,25.618V33.95a1.934,1.934,0,0,0,1.932,1.932H4.567v4.445a.828.828,0,0,0,.828.828H19.448a.828.828,0,0,0,.828-.828V35.882h2.635a1.934,1.934,0,0,0,1.932-1.932V25.618A1.935,1.935,0,0,0,22.911,23.686ZM6.223,19.721h12.4v3.965H6.223ZM18.62,39.5H6.224V32.724h12.4C18.62,32.929,18.62,39.343,18.62,39.5Zm4.567-5.549a.276.276,0,0,1-.276.276H20.276V31.9a.828.828,0,0,0-.828-.828H5.4a.828.828,0,0,0-.828.828v2.33H1.932a.276.276,0,0,1-.276-.276V25.618a.276.276,0,0,1,.276-.276H22.911a.276.276,0,0,1,.276.276V33.95Z" transform="translate(0 -18.065)" fill="#13443a"/>
      </g>
    </g>
    <g id="Group_53" data-name="Group 53" transform="translate(16.512 26.892)">
      <g id="Group_52" data-name="Group 52">
        <path id="Path_51" data-name="Path 51" d="M343.234,199.988h-2.108a.828.828,0,0,0,0,1.656h2.108a.828.828,0,0,0,0-1.656Z" transform="translate(-340.298 -199.988)" fill="#13443a"/>
      </g>
    </g>
    <g id="Group_55" data-name="Group 55" transform="translate(8.005 36.589)">
      <g id="Group_54" data-name="Group 54" transform="translate(0 0)">
        <path id="Path_52" data-name="Path 52" d="M172.982,399.834h-7.177a.828.828,0,1,0,0,1.656h7.177a.828.828,0,0,0,0-1.656Z" transform="translate(-164.977 -399.834)" fill="#13443a"/>
      </g>
    </g>
    <g id="Group_57" data-name="Group 57" transform="translate(8.005 33.977)">
      <g id="Group_56" data-name="Group 56">
        <path id="Path_53" data-name="Path 53" d="M172.982,346.006h-7.177a.828.828,0,1,0,0,1.656h7.177a.828.828,0,0,0,0-1.656Z" transform="translate(-164.977 -346.006)" fill="#13443a"/>
      </g>
    </g>
  </g>
</svg>
