<svg xmlns="http://www.w3.org/2000/svg" width="96.719" height="70.098" viewBox="0 0 96.719 70.098">
  <g id="question" transform="translate(0.001 -0.5)">
    <path id="Path_20" data-name="Path 20" d="M307.224,150.342h3.485a1.415,1.415,0,1,0,0-2.831h-3.485a1.415,1.415,0,1,0,0,2.831Zm0,0" transform="translate(-248.041 -119.241)" fill="#14ae8e"/>
    <path id="Path_21" data-name="Path 21" d="M357.5,150.342a1.415,1.415,0,1,0,0-2.831h-9.554a1.415,1.415,0,0,0,0,2.831Zm0,0" transform="translate(-281.075 -119.241)" fill="#14ae8e"/>
    <path id="Path_22" data-name="Path 22" d="M307.224,185.842h24.958a1.415,1.415,0,1,0,0-2.831H307.224a1.415,1.415,0,1,0,0,2.831Zm0,0" transform="translate(-248.041 -148.035)" fill="#14ae8e"/>
    <path id="Path_23" data-name="Path 23" d="M307.224,212.346h24.958a1.415,1.415,0,1,0,0-2.831H307.224a1.415,1.415,0,1,0,0,2.831Zm0,0" transform="translate(-248.041 -169.532)" fill="#14ae8e"/>
    <path id="Path_24" data-name="Path 24" d="M307.224,238.85h24.958a1.415,1.415,0,1,0,0-2.831H307.224a1.415,1.415,0,1,0,0,2.831Zm0,0" transform="translate(-248.041 -191.029)" fill="#14ae8e"/>
    <path id="Path_25" data-name="Path 25" d="M307.224,265.034h12.04a1.416,1.416,0,0,0,0-2.831h-12.04a1.416,1.416,0,0,0,0,2.831Zm0,0" transform="translate(-248.041 -212.266)" fill="#14ae8e"/>
    <path id="Path_26" data-name="Path 26" d="M72.322,14.514H66.157a24.238,24.238,0,0,0-12.248,3.307A24.438,24.438,0,0,0,30.56.5H24.394a24.4,24.4,0,0,0,0,48.791h4.222v5.447a1.843,1.843,0,0,0,3.162,1.29l8.377-8.553a2.117,2.117,0,0,1,.619-.44q1.047-.487,2.043-1.071A24.42,24.42,0,0,0,47.64,54.75a1.415,1.415,0,1,0,2.149-1.843,21.6,21.6,0,0,1-4.5-8.6,24.7,24.7,0,0,0,4.966-5.056,1.416,1.416,0,0,0-2.285-1.672,21.832,21.832,0,0,1-8.388,6.89,4.93,4.93,0,0,0-1.449,1.026l-6.685,6.826v-3.3a2.562,2.562,0,0,0-2.559-2.56H24.394a21.564,21.564,0,1,1,0-43.129H30.56A21.589,21.589,0,0,1,52.125,24.9,21.348,21.348,0,0,1,50.9,32.05,1.415,1.415,0,0,0,53.565,33a24.175,24.175,0,0,0,1.39-8.1,24.462,24.462,0,0,0-.359-4.179,21.43,21.43,0,0,1,11.561-3.371h6.166a21.564,21.564,0,1,1,0,43.129H67.828a2.562,2.562,0,0,0-2.559,2.56v3.3l-6.685-6.826a4.921,4.921,0,0,0-1.449-1.026,21.72,21.72,0,0,1-2.712-1.506,1.415,1.415,0,1,0-1.548,2.37,24.4,24.4,0,0,0,3.067,1.7,2.131,2.131,0,0,1,.619.44l8.376,8.554A1.845,1.845,0,0,0,68.1,68.752V63.305h4.222a24.4,24.4,0,0,0,0-48.791Zm0,0" fill="#13443a"/>
    <path id="Path_27" data-name="Path 27" d="M131.954,172.027a2.175,2.175,0,0,0,0,4.349,2.175,2.175,0,0,0,0-4.349Zm0,0" transform="translate(-105.288 -139.125)" fill="#14ae8e"/>
    <path id="Path_28" data-name="Path 28" d="M122.076,94.7c.762-.593,3.163-2.513,3.163-5.168s-2.4-4.66-6.015-4.66c-3.813,0-5.564,2.259-5.564,3.784a1.62,1.62,0,0,0,1.695,1.61c1.525,0,.9-2.175,3.784-2.175,1.412,0,2.541.621,2.541,1.921,0,1.525-1.581,2.4-2.513,3.191a5.169,5.169,0,0,0-1.892,4.292c0,1.468.4,1.892,1.553,1.892,1.384,0,1.666-.621,1.666-1.158a3.547,3.547,0,0,1,1.581-3.53Zm0,0" transform="translate(-92.19 -68.436)" fill="#14ae8e"/>
  </g>
</svg>
