<svg xmlns="http://www.w3.org/2000/svg" width="71.456" height="70.46" viewBox="0 0 71.456 70.46">
  <g id="safe" transform="translate(0 0)">
    <path id="Path_15" data-name="Path 15" d="M55.819,32.824c0-.127.007-18.869.007-18.869L27.912,0,0,13.956V32.443A34.563,34.563,0,0,0,15.413,61.249l12.5,8.329,9.629-6.414A18.965,18.965,0,1,0,55.819,32.823ZM27.912,66.9l-11.26-7.505a32.331,32.331,0,0,1-14.42-26.95V15.336L27.913,2.5l25.68,12.84V32.567c-.371-.022-.738-.057-1.117-.057s-.747.034-1.117.057V16.713L27.913,4.991,4.466,16.714V32.443a30.11,30.11,0,0,0,13.426,25.09L27.913,64.21l7.3-4.867a18.92,18.92,0,0,0,1.056,1.983Zm6.469-9.681-6.469,4.31-8.781-5.851c-.433-.289-.853-.593-1.268-.9V44.792H15.631V52.9a27.891,27.891,0,0,1-3.35-3.718V42.691a3.35,3.35,0,0,1,2.533-3.248l7.572-1.9a5.576,5.576,0,0,0,4.409,4.9v4.578h2.233V42.447a5.574,5.574,0,0,0,4.408-4.9l4.97,1.248a18.884,18.884,0,0,0-4.026,18.422ZM22.33,23.578h3.086A11.761,11.761,0,0,0,30.4,22.462h.3l2.791,3.721v4.652l-3.721,2.791H26.051L22.33,30.836Zm-2.14-2.233a4.368,4.368,0,0,1,2.392-3.227,11.275,11.275,0,0,1,7.84-.493l.257.371h1.7a1.117,1.117,0,0,1,1.117,1.117v3.35L31.82,20.229H29.882l-.236.117a9.521,9.521,0,0,1-4.231,1ZM31.262,35.3v1.675a3.35,3.35,0,0,1-6.7,0V35.3l.745.558h5.21Zm2.233-.044V33.627l2.233-1.675V19.112a3.349,3.349,0,0,0-3.35-3.35h-.743c-1.615-.982-5.637-1.18-8.486-.289a6.948,6.948,0,0,0-5.287,6.989v1.117H20.1v8.374l2.233,1.675v1.626l-8.059,2.026a5.573,5.573,0,0,0-4.223,5.412v3.015A27.883,27.883,0,0,1,6.7,32.443V18.094L27.912,7.487,49.126,18.094V32.443c0,.128-.008.256-.009.383a18.892,18.892,0,0,0-8.834,4.138ZM52.476,68.239A16.748,16.748,0,1,1,69.223,51.491,16.748,16.748,0,0,1,52.476,68.239Zm0,0" transform="translate(0 0)" fill="#13443a"/>
    <path id="Path_16" data-name="Path 16" d="M416,136.945h13.4v2.233H416Zm0,0" transform="translate(-357.942 -117.833)" fill="#14ae8e"/>
    <path id="Path_17" data-name="Path 17" d="M416,168.945h8.932v2.233H416Zm0,0" transform="translate(-357.942 -145.367)" fill="#14ae8e"/>
    <path id="Path_18" data-name="Path 18" d="M416,200.945h4.466v2.233H416Zm0,0" transform="translate(-357.942 -172.901)" fill="#14ae8e"/>
    <path id="Path_19" data-name="Path 19" d="M283.271,295.15l-3.946-3.947-6.316,6.315,10.263,10.263,17.368-17.368-6.316-6.315Zm0,9.473-7.105-7.105,3.159-3.158,3.946,3.946,11.053-11.053,3.159,3.158Zm0,0" transform="translate(-234.906 -244.448)" fill="#14ae8e"/>
  </g>
</svg>
