<svg id="search" xmlns="http://www.w3.org/2000/svg" width="29.832" height="29.832" viewBox="0 0 29.832 29.832">
  <g id="Group_16" data-name="Group 16" transform="translate(17.479 11.07)">
    <g id="Group_15" data-name="Group 15">
      <path id="Path_29" data-name="Path 29" d="M300.583,190a.583.583,0,1,0,.583.583A.583.583,0,0,0,300.583,190Z" transform="translate(-300 -190)" fill="#13443a"/>
    </g>
  </g>
  <g id="Group_18" data-name="Group 18">
    <g id="Group_17" data-name="Group 17">
      <path id="Path_30" data-name="Path 30" d="M29.149,25.853l-7.777-7.777a11.548,11.548,0,0,0,1.934-6.423A11.653,11.653,0,1,0,11.653,23.306a11.549,11.549,0,0,0,6.423-1.934l2.15,2.15h0l5.627,5.627a2.33,2.33,0,1,0,3.3-3.3ZM17.8,20.144h0A10.5,10.5,0,1,1,20.144,17.8,10.538,10.538,0,0,1,17.8,20.144Zm1.222.528a11.692,11.692,0,0,0,1.648-1.648l1.653,1.653a14.143,14.143,0,0,1-1.648,1.648Zm9.3,7.653a1.164,1.164,0,0,1-1.648,0L21.5,23.151A15.311,15.311,0,0,0,23.151,21.5l5.174,5.174a1.164,1.164,0,0,1,0,1.647Z" fill="#13443a"/>
    </g>
  </g>
  <g id="Group_20" data-name="Group 20" transform="translate(2.331 2.331)">
    <g id="Group_19" data-name="Group 19">
      <path id="Path_31" data-name="Path 31" d="M49.322,40a9.322,9.322,0,1,0,9.322,9.322A9.333,9.333,0,0,0,49.322,40Zm0,17.479a8.157,8.157,0,1,1,8.157-8.157A8.166,8.166,0,0,1,49.322,57.479Z" transform="translate(-40 -40)" fill="#13443a"/>
    </g>
  </g>
  <g id="Group_22" data-name="Group 22" transform="translate(11.07 4.661)">
    <g id="Group_21" data-name="Group 21">
      <path id="Path_32" data-name="Path 32" d="M197.112,84.491A7,7,0,0,0,190.583,80a.583.583,0,0,0,0,1.165,5.866,5.866,0,0,1,5.442,3.743.583.583,0,1,0,1.088-.418Z" transform="translate(-190 -80)" fill="#13443a"/>
    </g>
  </g>
</svg>
